<?xml version="1.0" standalone="no"?>
<!DOCTYPE svg PUBLIC "-//W3C//DTD SVG 20010904//EN"
 "http://www.w3.org/TR/2001/REC-SVG-20010904/DTD/svg10.dtd">
<svg version="1.0" xmlns="http://www.w3.org/2000/svg"
 width="512.000000pt" height="512.000000pt" viewBox="0 0 512.000000 512.000000"
 preserveAspectRatio="xMidYMid meet">

<g transform="translate(0.000000,512.000000) scale(0.100000,-0.100000)"
fill="#000000" stroke="none">
<path d="M1915 4330 c-205 -9 -665 -38 -730 -45 -59 -7 -101 -41 -115 -95 -5
-19 -14 -123 -20 -230 -49 -896 -51 -1921 -5 -2756 14 -264 23 -302 76 -330
73 -37 1095 -110 1166 -83 13 5 23 17 23 26 0 21 -184 206 -215 217 -11 4
-101 12 -200 16 -99 5 -259 14 -355 20 -166 10 -176 12 -197 35 -27 30 -30 60
-43 380 -27 652 -22 1770 10 2368 10 189 12 193 111 207 345 49 1893 48 2239
0 86 -12 96 -25 104 -137 14 -182 36 -888 36 -1135 0 -146 4 -268 10 -283 13
-33 197 -210 219 -210 14 0 16 27 19 255 5 397 -22 1147 -53 1497 -15 167 -27
203 -80 227 -31 14 -364 40 -740 56 -222 10 -1028 10 -1260 0z"/>
<path d="M2047 3669 c-427 -7 -429 -7 -453 -30 -21 -20 -24 -31 -24 -101 0
-112 -10 -108 280 -96 179 7 1205 4 1568 -5 49 -1 57 14 57 103 0 127 22 119
-360 125 -176 3 -392 7 -480 8 -88 2 -353 0 -588 -4z"/>
<path d="M1686 3103 c-55 -2 -106 -9 -113 -15 -19 -16 -18 -171 2 -188 11 -9
236 -12 951 -12 1080 0 970 -12 960 105 -10 108 -2 103 -177 110 -148 7 -1424
6 -1623 0z"/>
<path d="M1576 2528 c-11 -15 -16 -45 -16 -90 0 -120 -106 -108 963 -108 819
0 925 2 945 16 19 13 22 24 22 90 0 128 121 114 -960 114 l-939 0 -15 -22z"/>
<path d="M3689 2158 c-68 -49 -254 -234 -567 -563 -156 -165 -293 -304 -303
-309 -10 -5 -29 -6 -42 -2 -13 3 -100 82 -192 176 -93 93 -177 172 -186 175
-31 10 -72 -20 -172 -129 -78 -85 -97 -112 -97 -136 0 -26 36 -67 250 -288
145 -149 268 -267 293 -280 37 -21 51 -23 120 -19 57 4 87 11 116 29 21 12
105 93 186 178 145 150 403 415 747 766 138 140 168 176 168 199 0 24 -20 48
-107 132 -125 118 -141 124 -214 71z"/>
</g>
</svg>
